<svg width="33" height="27" viewBox="0 0 33 27" fill="none" xmlns="http://www.w3.org/2000/svg">
<path d="M23.3552 8.53206H19.0294C18.9582 8.53204 18.8898 8.56232 18.8394 8.61625C18.7889 8.67018 18.7605 8.74334 18.7605 8.81966V11.9759" stroke="#2F455C" stroke-miterlimit="10" stroke-linecap="round" stroke-linejoin="round"/>
<path d="M6.19888 14.8297H10.921C11.1009 14.8297 11.1882 14.8802 11.2616 14.981L19.4957 26.4333H22.8609L14.8154 15.2444C14.6076 14.9567 14.6129 14.8297 15.0232 14.8297H31.9944L31.9891 11.976H26.4234C26.2034 11.976 26.0235 11.7836 26.0235 11.5483V3.61462M10.5002 11.976H6.19888M23.3551 3.61462V11.5483C23.3551 11.7836 23.1752 11.976 22.9552 11.976H12.7442" stroke="#2F455C" stroke-miterlimit="10" stroke-linecap="round" stroke-linejoin="round"/>
<path d="M6.19537 3.61472H10.3377" stroke="#2F455C" stroke-miterlimit="10" stroke-linecap="round" stroke-linejoin="round"/>
<path d="M9.70557 23.5441V21.6074" stroke="#2F455C" stroke-miterlimit="10" stroke-linecap="round" stroke-linejoin="round"/>
<path d="M9.70557 21.6074C10.4985 21.6074 11.1463 20.9163 11.1463 20.0684C11.1463 19.2206 10.4985 18.5295 9.70557 18.5295C8.91274 18.5295 8.2666 19.2206 8.2666 20.0684C8.2666 20.9163 8.91274 21.6074 9.70557 21.6074Z" stroke="#2F455C" stroke-miterlimit="10" stroke-linecap="round" stroke-linejoin="round"/>
<path d="M11.5986 7.09027V5.15353" stroke="#2F455C" stroke-miterlimit="10" stroke-linecap="round" stroke-linejoin="round"/>
<path d="M11.5986 5.15359C12.3914 5.15359 13.0376 4.46257 13.0376 3.61468C13.0376 2.76679 12.3914 2.07576 11.5986 2.07576C10.8057 2.07576 10.1596 2.76679 10.1596 3.61468C10.1596 4.46257 10.8057 5.15359 11.5986 5.15359Z" stroke="#2F455C" stroke-miterlimit="10" stroke-linecap="round" stroke-linejoin="round"/>
<path d="M22.6793 21.7231V19.7864" stroke="#2F455C" stroke-miterlimit="10" stroke-linecap="round" stroke-linejoin="round"/>
<path d="M22.6793 19.7863C23.4721 19.7863 24.1183 19.0953 24.1183 18.2474C24.1183 17.3995 23.4721 16.7085 22.6793 16.7085C21.8864 16.7085 21.2404 17.3995 21.2404 18.2474C21.2404 19.0953 21.8864 19.7863 22.6793 19.7863Z" stroke="#2F455C" stroke-miterlimit="10" stroke-linecap="round" stroke-linejoin="round"/>
<path d="M9.74052 26.4333H3.71907C2.43024 26.4333 1.37546 25.3053 1.37546 23.927M1.37546 23.927C1.37546 22.5487 2.43024 21.4206 3.71907 21.4206H5.39732C5.83565 21.4206 6.19544 21.0359 6.19544 20.5671V2.28685C6.19544 1.81811 5.83565 1.43335 5.39732 1.43335H3.71907C2.43024 1.43335 1.37546 2.56138 1.37546 3.93968V23.927ZM13.0377 3.61475H30.9151C31.8599 3.61475 31.9891 4.26653 31.9891 4.7129V25.2045C31.9891 25.8227 31.811 26.4333 30.8383 26.4333H11.7366" stroke="#2F455C" stroke-miterlimit="10" stroke-linecap="round" stroke-linejoin="round"/>
</svg>
