<svg width="32" height="26" viewBox="0 0 32 26" fill="none" xmlns="http://www.w3.org/2000/svg">
<path fill-rule="evenodd" clip-rule="evenodd" d="M29.8317 3.07483H5.90395C3.80949 8.12378 1.23837 11.3611 1.23837 16.956V22.6029C1.23837 23.928 2.25936 25.0124 3.5069 25.0124H29.7574C30.6989 25.0124 30.8713 24.4253 30.8713 23.831V4.13058C30.8713 3.70145 30.7462 3.07483 29.8317 3.07483Z" fill="#BBEC6A"/>
<path fill-rule="evenodd" clip-rule="evenodd" d="M30.8713 13.8569H24.326C24.4714 18.5163 24.4748 22.2671 23.6735 25.0124H29.7573C30.6989 25.0124 30.8713 24.4253 30.8713 23.831V13.8569H30.8713Z" fill="#75DB3A"/>
<path fill-rule="evenodd" clip-rule="evenodd" d="M22.1268 11.1134H5.90728L4.76285 12.363L5.90728 13.8569H10.4782C10.6523 13.8569 10.7368 13.9054 10.8078 14.0024L18.7781 25.0124H22.0356L14.2478 14.2555C14.0466 13.979 14.0517 13.8569 14.4489 13.8569H30.8764L30.8713 11.1116L25.484 11.1134C25.271 11.1134 25.0969 10.9284 25.0969 10.7022V3.07483H22.5139V10.7022C22.5139 10.9284 22.3398 11.1134 22.1268 11.1134Z" fill="#F8F2F0"/>
<path fill-rule="evenodd" clip-rule="evenodd" d="M22.5139 7.80243H18.3268C18.2578 7.80243 18.1917 7.83155 18.1428 7.88339C18.094 7.93524 18.0666 8.00556 18.0665 8.07892V11.1133H22.1268C22.3399 11.1133 22.5139 10.9284 22.5139 10.7021V7.8706V7.80243Z" fill="#98BCE5"/>
<path fill-rule="evenodd" clip-rule="evenodd" d="M30.8713 11.1115L25.484 11.1133C25.271 11.1133 25.0969 10.9284 25.0969 10.7021V3.07483H22.9281C23.6973 6.09491 24.1993 9.80444 24.3261 13.8569H30.8765L30.8713 11.1115Z" fill="#E0D2CE"/>
<path fill-rule="evenodd" clip-rule="evenodd" d="M25.0969 3.07483V10.7022C25.0969 10.9284 25.271 11.1134 25.4839 11.1134L30.8713 11.1116V4.13058C30.8713 3.70145 30.7462 3.07483 29.8317 3.07483H25.0969Z" fill="#75DB3A"/>
<path fill-rule="evenodd" clip-rule="evenodd" d="M5.90389 11.1134V1.79821C5.90389 1.34751 5.55569 0.977661 5.13139 0.977661H3.5069C2.25936 0.977661 1.23837 2.06214 1.23837 3.38723V22.6028C1.23837 21.2777 2.25936 20.1933 3.5069 20.1933H5.13139C5.55569 20.1933 5.90389 19.8233 5.90389 19.3727V13.8569V11.1134Z" fill="#989BA3"/>
<path fill-rule="evenodd" clip-rule="evenodd" d="M5.90388 1.79821C5.90388 1.34751 5.55568 0.977661 5.13138 0.977661H3.50689C3.29895 0.977661 3.09781 1.00639 2.9068 1.06384C3.33276 1.06384 3.6793 1.43191 3.6793 1.88439V19.4589C3.6793 19.7965 3.48489 20.0891 3.20765 20.2148C3.3068 20.2003 3.40676 20.1931 3.50684 20.1933H5.13132C5.55562 20.1933 5.90382 19.8233 5.90382 19.3727L5.90388 1.79821Z" fill="#848791"/>
<path fill-rule="evenodd" clip-rule="evenodd" d="M10.6962 18.8933C10.6962 18.0764 10.0725 17.4138 9.30165 17.4138C8.53249 17.4138 7.90872 18.0764 7.90872 18.8933C7.90872 19.7103 8.53249 20.3728 9.30165 20.3728C10.0725 20.3728 10.6962 19.7103 10.6962 18.8933ZM12.5269 3.07484C12.5269 2.25791 11.9032 1.59534 11.134 1.59534C10.3649 1.59534 9.74109 2.25791 9.74109 3.07484C9.74109 3.89177 10.3649 4.55434 11.134 4.55434C11.9032 4.55434 12.5269 3.89177 12.5269 3.07484ZM23.2526 17.1427C23.2526 16.3257 22.6289 15.6632 21.8597 15.6632C21.0906 15.6632 20.4668 16.3257 20.4668 17.1427C20.4668 17.9597 21.0906 18.6222 21.8597 18.6222C22.6289 18.6222 23.2526 17.9597 23.2526 17.1427Z" fill="#98BCE5"/>
<path d="M31.3186 11.1125V4.13063C31.3186 3.17171 30.7627 2.59925 29.8317 2.59925H12.9189C12.7184 1.7503 11.9943 1.11975 11.1341 1.11975C10.2738 1.11975 9.54971 1.75036 9.34922 2.59925H6.35113V1.79824C6.35113 1.08354 5.80399 0.502075 5.13138 0.502075H3.50689C2.00943 0.502075 0.791107 1.7964 0.791107 3.38726V22.6029C0.791107 24.1938 2.00943 25.4881 3.50689 25.4881H9.33545C9.45407 25.4881 9.56783 25.438 9.6517 25.3488C9.73558 25.2596 9.7827 25.1386 9.7827 25.0125C9.7827 24.8863 9.73558 24.7654 9.6517 24.6762C9.56783 24.587 9.45407 24.5369 9.33545 24.5369H3.50689C2.50266 24.5369 1.68562 23.6693 1.68562 22.6029C1.68562 21.5365 2.50266 20.6689 3.50689 20.6689H5.13138C5.80393 20.6689 6.35113 20.0874 6.35113 19.3727V14.3325H10.4824L17.8694 24.5369H11.2676C11.149 24.5369 11.0352 24.587 10.9513 24.6762C10.8675 24.7654 10.8203 24.8863 10.8203 25.0125C10.8203 25.1386 10.8675 25.2596 10.9513 25.3488C11.0352 25.438 11.149 25.4881 11.2676 25.4881H29.7573C30.3403 25.4881 31.3186 25.2728 31.3186 23.831V13.9245C31.3216 13.9019 31.3237 13.8791 31.3236 13.856L31.3186 11.1125ZM11.1341 2.071C11.6555 2.071 12.0797 2.52138 12.0797 3.07488C12.0797 3.62837 11.6554 4.07876 11.1341 4.07876C10.7197 4.07876 10.3675 3.79389 10.24 3.39925C10.3177 3.31144 10.3609 3.19543 10.3609 3.07488C10.3609 2.95433 10.3177 2.83832 10.24 2.7505C10.3675 2.35586 10.7197 2.071 11.1341 2.071ZM5.45662 19.3727C5.45662 19.5597 5.30766 19.7177 5.13138 19.7177H3.50689C2.80679 19.7177 2.1677 20.0006 1.68562 20.4644V3.38726C1.68562 2.32092 2.50266 1.45332 3.50689 1.45332H5.13138C5.30772 1.45332 5.45662 1.61129 5.45662 1.79824V19.3727ZM30.4241 23.831C30.4241 24.3191 30.3278 24.5369 29.7573 24.5369H22.2556L14.868 14.3325H30.4241V23.831ZM30.4241 13.3813H14.4489C14.2959 13.3813 13.8892 13.3813 13.7244 13.7385C13.5621 14.0902 13.8032 14.4218 13.8934 14.5457L21.1267 24.5369H18.9983L11.1607 13.7102C10.9964 13.4858 10.7795 13.3813 10.4782 13.3813H6.35113V11.589H10.0708C10.1894 11.589 10.3032 11.5389 10.387 11.4497C10.4709 11.3605 10.518 11.2395 10.518 11.1133C10.518 10.9872 10.4709 10.8662 10.387 10.777C10.3032 10.6878 10.1894 10.6377 10.0708 10.6377H6.35113V3.5505H9.34928C9.51387 4.24713 10.031 4.79663 10.6868 4.97134V6.41635C10.6868 6.54249 10.7339 6.66347 10.8178 6.75266C10.9017 6.84186 11.0154 6.89197 11.1341 6.89197C11.2527 6.89197 11.3664 6.84186 11.4503 6.75266C11.5342 6.66347 11.5813 6.54249 11.5813 6.41635V4.97134C12.2371 4.79669 12.7543 4.24725 12.9189 3.5505H22.0667V7.32681H18.3268C17.9366 7.32681 17.6192 7.66419 17.6192 8.07893V10.6377H12.243C12.1244 10.6377 12.0106 10.6878 11.9268 10.777C11.8429 10.8662 11.7958 10.9872 11.7958 11.1133C11.7958 11.2395 11.8429 11.3605 11.9268 11.4497C12.0106 11.5389 12.1244 11.589 12.243 11.589H22.1269C22.5869 11.589 22.9612 11.1912 22.9612 10.7022V3.5505H24.6496V10.7022C24.6496 11.1912 25.0239 11.589 25.4839 11.589H30.4241V13.3813ZM22.0667 8.27806V10.6377H18.5137V8.27806H22.0667ZM30.4241 10.6378H25.5441V3.5505H29.8317C30.3297 3.5505 30.4241 3.75438 30.4241 4.13063V10.6378Z" fill="black"/>
<path d="M9.30164 22.7105C9.42026 22.7105 9.53402 22.6603 9.6179 22.5711C9.70177 22.4819 9.74889 22.361 9.74889 22.2348V20.7899C10.5491 20.5772 11.1435 19.8077 11.1435 18.8934C11.1435 17.8153 10.3173 16.9382 9.30164 16.9382C8.28697 16.9382 7.46152 17.8153 7.46152 18.8934C7.46152 19.8076 8.05523 20.5769 8.85439 20.7898V22.2348C8.85439 22.361 8.90151 22.4819 8.98538 22.5711C9.06926 22.6603 9.18302 22.7105 9.30164 22.7105ZM8.35597 18.8934C8.35597 18.3398 8.7802 17.8895 9.30158 17.8895C9.82397 17.8895 10.2489 18.3399 10.2489 18.8934C10.2489 19.4469 9.82397 19.8972 9.30158 19.8972C8.7802 19.8972 8.35597 19.4469 8.35597 18.8934ZM21.4125 19.0392V20.4842C21.4125 20.7468 21.6127 20.9598 21.8598 20.9598C22.1068 20.9598 22.307 20.7468 22.307 20.4842V19.0392C23.1062 18.8263 23.6999 18.0569 23.6999 17.1427C23.6999 16.0646 22.8744 15.1876 21.8598 15.1876C20.8451 15.1876 20.0196 16.0646 20.0196 17.1427C20.0196 18.0569 20.6133 18.8263 21.4125 19.0392ZM21.8598 16.1388C22.3812 16.1388 22.8054 16.5892 22.8054 17.1427C22.8054 17.6962 22.3812 18.1466 21.8598 18.1466C21.3383 18.1466 20.9141 17.6962 20.9141 17.1427C20.9141 16.5892 21.3383 16.1388 21.8598 16.1388Z" fill="black"/>
</svg>
