<svg width="27" height="26" viewBox="0 0 27 26" fill="none" xmlns="http://www.w3.org/2000/svg">
<mask id="mask0_4_838" style="mask-type:luminance" maskUnits="userSpaceOnUse" x="0" y="0" width="27" height="26">
<path d="M25.8713 25.4017V0.983164H1.45276V25.4017H25.8713Z" fill="white" stroke="white"/>
</mask>
<g mask="url(#mask0_4_838)">
<path d="M19.9147 18.948H6.65133L4.66766 20.3595V24.0864C4.66766 24.8429 5.28096 25.4561 6.0374 25.4561H20.8097C21.5662 25.4561 22.1794 24.8429 22.1794 24.0864V20.3595L19.9147 18.948Z" fill="#FFF0DC"/>
<path d="M20.4821 25.4565H20.8096C21.5662 25.4565 22.1794 24.8432 22.1794 24.0867V20.3598L20.4821 19.302V25.4565Z" fill="#FFDDCE"/>
<path d="M16.5407 18.1942H10.3062C8.28641 18.1942 6.64905 16.5568 6.64905 14.537C6.64905 12.5172 8.28641 10.8798 10.3062 10.8798H16.5407C18.5605 10.8798 20.1979 12.5172 20.1979 14.5369C20.1979 16.5567 18.5605 18.1942 16.5407 18.1942Z" fill="#557981"/>
<path d="M20.4582 7.92446H6.38873C5.63107 7.92446 5.01685 8.53864 5.01685 9.2963V10.3837C5.01685 11.1413 5.63107 11.7556 6.38873 11.7556H20.4582C21.2159 11.7556 21.8301 11.1413 21.8301 10.3837V9.2963C21.8301 8.53864 21.2159 7.92446 20.4582 7.92446Z" fill="#DAEAEF"/>
<path d="M20.4583 7.92446H20.139V10.3837C20.139 11.1413 19.5248 11.7556 18.7672 11.7556H20.4583C21.2159 11.7556 21.8301 11.1413 21.8301 10.3837V9.2963C21.8301 8.53864 21.2159 7.92446 20.4583 7.92446Z" fill="#C9E2E7"/>
<path d="M22.0798 16.6344C21.7842 15.5495 20.9021 14.6969 19.7688 14.4615L15.4277 13.5594H11.4199L7.07875 14.4615C5.94546 14.6969 5.06336 15.5495 4.76777 16.6344C4.69718 16.8934 4.66791 17.1619 4.66791 17.4304V20.3596H7.17142C7.73131 20.3596 8.18521 20.8135 8.18521 21.3734V25.4563H18.6623V21.3734C18.6623 20.8135 19.1162 20.3596 19.6761 20.3596H22.1796V17.4304C22.1796 17.1619 22.1503 16.8934 22.0798 16.6344Z" fill="#FA4954"/>
<path d="M22.0795 16.6347C21.7839 15.5498 20.9018 14.6972 19.7685 14.4617L15.4274 13.5597H13.4235C13.4235 14.2306 13.9132 14.8011 14.5763 14.9029L18.0713 15.439C19.2046 15.6745 20.0867 16.5271 20.3822 17.612C20.4528 17.871 20.4821 18.1396 20.4821 18.408V20.3599H22.1793V17.4306C22.1793 17.1622 22.1501 16.8937 22.0795 16.6347Z" fill="#FA2A3B"/>
<path d="M15.4274 13.5597V10.8322H11.4196V13.5597C11.4196 14.6664 12.3168 15.5636 13.4235 15.5636C14.5303 15.5636 15.4274 14.6664 15.4274 13.5597Z" fill="#FFF0DC"/>
<path d="M18.123 6.10222H17.1856V5.62732C17.1856 4.61069 16.7683 3.62564 15.9979 2.96231C15.3939 2.44227 14.545 1.98832 13.4235 1.97584C12.302 1.98832 11.453 2.44227 10.849 2.96231C10.0787 3.62564 9.66131 4.61069 9.66131 5.62732V6.01303H8.72394V8.08393C8.72394 8.46 9.02877 8.76484 9.40484 8.76484H9.66234C9.68358 9.75302 10.0988 10.7042 10.849 11.3501C11.453 11.8702 12.302 12.3241 13.4235 12.3367C14.545 12.3241 15.3939 11.8702 15.9979 11.3501C16.7481 10.7042 17.1634 9.75302 17.1846 8.76484H17.4421C17.8181 8.76484 18.123 8.46 18.123 8.08393V6.10222Z" fill="#FFF0DC"/>
<path d="M15.0376 1.12632H11.8094C10.1054 1.12632 8.72394 2.50771 8.72394 4.21175V6.52091C8.72394 6.52091 9.34815 6.50681 9.74928 6.90378C9.8328 6.98647 9.97476 6.92606 9.97476 6.80852V4.35709C9.97476 3.80372 10.4234 3.35515 10.9767 3.35515H11.8872C12.5916 3.35515 12.6239 3.94441 13.4235 3.94441C14.2184 3.94441 14.2557 3.35515 14.9599 3.35515H15.8703C16.4236 3.35515 16.8722 3.80372 16.8722 4.35709V6.80852C16.8722 6.92606 17.0142 6.98647 17.0977 6.90378C17.4988 6.50681 18.123 6.52091 18.123 6.52091V4.21175C18.123 2.50771 16.7417 1.12632 15.0376 1.12632Z" fill="#FBA615"/>
<path d="M9.34748 13.3057L8.52275 13.5202C8.42938 13.5445 8.3467 13.5991 8.28769 13.6754C8.22867 13.7517 8.19666 13.8455 8.19667 13.942V17.9604C8.19667 18.9379 7.99973 19.7084 7.62146 20.4664C7.95513 20.6323 8.18492 20.9758 8.18492 21.3737V22.7663L8.57078 22.3504C9.50952 20.9406 9.89298 19.6542 9.89298 17.9604V13.7275C9.89298 13.4423 9.62353 13.2339 9.34748 13.3057Z" fill="#688B96"/>
<path d="M18.6621 21.3737C18.6621 20.9758 18.8919 20.6323 19.2256 20.4664C18.8472 19.7084 18.6503 18.9378 18.6503 17.9604V13.9419C18.6503 13.8455 18.6183 13.7517 18.5593 13.6754C18.5003 13.5991 18.4176 13.5445 18.3243 13.5202L17.4995 13.3057C17.2235 13.2339 16.954 13.4422 16.954 13.7274V17.9604C16.954 19.6541 17.3374 20.9405 18.2762 22.3504L18.6621 22.7663V21.3737Z" fill="#688B96"/>
<path d="M17.1856 6.10222V5.62732C17.1856 4.82252 16.9232 4.03813 16.4319 3.41685V8.08393C16.4319 8.46 16.1271 8.76484 15.751 8.76484C15.6831 8.76476 15.6176 8.7901 15.5674 8.83589C15.5172 8.88168 15.486 8.9446 15.4799 9.01225C15.4003 9.91026 14.9942 10.7583 14.3068 11.3501C13.8653 11.7303 13.2921 12.0744 12.5779 12.2372C12.8554 12.3005 13.1389 12.3338 13.4235 12.3367C14.545 12.3241 15.3939 11.8702 15.9979 11.3501C16.7481 10.7042 17.1634 9.75302 17.1846 8.76484H17.4421C17.8182 8.76484 18.123 8.46 18.123 8.08393V6.10222H17.1856Z" fill="#FFDDCE"/>
<path d="M15.0376 1.12632H14.6172C15.6195 1.12632 16.4319 1.93881 16.4319 2.94105V3.52732C16.6976 3.70752 16.8723 4.01187 16.8723 4.35709V6.80852C16.8723 6.92606 17.0142 6.98647 17.0977 6.90378C17.4988 6.50681 18.123 6.52091 18.123 6.52091V4.21175C18.123 2.50771 16.7417 1.12632 15.0376 1.12632Z" fill="#FA9801"/>
<path d="M17.6206 2.52352C17.0695 1.68215 16.1184 1.12632 15.0375 1.12632H11.8093C10.1053 1.12632 8.72394 2.50771 8.72394 4.21175V6.52091C8.72394 6.52091 9.34815 6.50681 9.74923 6.90378C9.8328 6.98647 9.97471 6.92606 9.97471 6.80852V4.35709C9.97471 3.80372 10.4233 3.35515 10.9767 3.35515H11.8871C12.5915 3.35515 12.6239 3.94441 13.4235 3.94441C14.2184 3.94441 14.2557 3.35515 14.9598 3.35515H15.8703C16.4236 3.35515 16.8722 3.80372 16.8722 4.35709V6.80852C16.8722 6.92606 17.0141 6.98647 17.0977 6.90378C17.4988 6.50681 18.123 6.52091 18.123 6.52091V4.21175" stroke="black" stroke-miterlimit="10" stroke-linecap="round" stroke-linejoin="round"/>
<path d="M8.72394 6.52098V8.08398C8.72394 8.46 9.02877 8.76483 9.40484 8.76483H9.66234C9.68358 9.75302 10.0988 10.7042 10.849 11.3501C11.453 11.8702 12.302 12.3241 13.4235 12.3367C14.545 12.3241 15.3939 11.8702 15.9979 11.3501C16.7481 10.7042 17.1634 9.75302 17.1846 8.76483H17.4421C17.8182 8.76483 18.123 8.46 18.123 8.08398V6.52098" stroke="black" stroke-miterlimit="10" stroke-linecap="round" stroke-linejoin="round"/>
<path d="M13.4235 12.3366C12.6182 12.3276 11.9541 12.0906 11.4196 11.7653V13.5597C11.4196 14.6664 12.3168 15.5636 13.4235 15.5636C14.5302 15.5636 15.4274 14.6664 15.4274 13.5597V11.7653C14.893 12.0906 14.2288 12.3276 13.4235 12.3366Z" stroke="black" stroke-miterlimit="10" stroke-linecap="round" stroke-linejoin="round"/>
<path d="M4.66766 20.3599V24.0868C4.66766 24.8433 5.28091 25.4565 6.0374 25.4565H20.8097C21.5662 25.4565 22.1794 24.8433 22.1794 24.0868V20.3599" stroke="black" stroke-miterlimit="10" stroke-linecap="round" stroke-linejoin="round"/>
<path d="M18.6621 25.4565V21.3736C18.6621 20.8137 19.1159 20.3598 19.6759 20.3598H22.1794V17.4306C22.1794 17.1621 22.1501 16.8936 22.0796 16.6346C21.7839 15.5497 20.9018 14.6972 19.7685 14.4616L18.6503 14.2293" stroke="black" stroke-miterlimit="10" stroke-linecap="round" stroke-linejoin="round"/>
<path d="M16.9541 13.877L15.4274 13.5598" stroke="black" stroke-miterlimit="10" stroke-linecap="round" stroke-linejoin="round"/>
<path d="M11.4196 13.5597L9.89294 13.8768" stroke="black" stroke-miterlimit="10" stroke-linecap="round" stroke-linejoin="round"/>
<path d="M8.19671 14.2294L7.07855 14.4617C5.94522 14.6972 5.06311 15.5498 4.76753 16.6346C4.69694 16.8936 4.66766 17.1622 4.66766 17.4307V20.3599H7.17117C7.73111 20.3599 8.18501 20.8138 8.18501 21.3737V25.4565" stroke="black" stroke-miterlimit="10" stroke-linecap="round" stroke-linejoin="round"/>
<path d="M8.19109 18.2398C8.15663 19.0876 7.96296 19.7821 7.62146 20.4664" stroke="black" stroke-miterlimit="10" stroke-linecap="round" stroke-linejoin="round"/>
<path d="M8.18494 22.7663L8.57074 22.3504C9.50954 20.9406 9.89294 19.6542 9.89294 17.9604V13.7274C9.89294 13.4423 9.6235 13.2339 9.3475 13.3057L8.52272 13.5202C8.42935 13.5445 8.34668 13.5991 8.28767 13.6754C8.22866 13.7517 8.19664 13.8455 8.19664 13.9419V16.5212" stroke="black" stroke-miterlimit="10" stroke-linecap="round" stroke-linejoin="round"/>
<path d="M19.2255 20.4664C18.8472 19.7084 18.6503 18.9378 18.6503 17.9604V13.9419C18.6503 13.8455 18.6183 13.7517 18.5593 13.6754C18.5003 13.599 18.4176 13.5445 18.3242 13.5202L17.4995 13.3057C17.2235 13.2339 16.954 13.4423 16.954 13.7274V17.9604C16.954 19.6542 17.3374 20.9406 18.2762 22.3504L18.662 22.7663" stroke="black" stroke-miterlimit="10" stroke-linecap="round" stroke-linejoin="round"/>
<path d="M11.4196 13.5597V11.7653" stroke="black" stroke-miterlimit="10" stroke-linecap="round" stroke-linejoin="round"/>
<path d="M7.93311 11.7555C7.14764 12.4263 6.64905 13.4231 6.64905 14.537C6.64905 14.5528 6.65003 14.5683 6.65022 14.5841" stroke="black" stroke-miterlimit="10" stroke-linecap="round" stroke-linejoin="round"/>
<path d="M20.1968 14.5841C20.197 14.5684 20.1979 14.5528 20.1979 14.5371C20.1979 13.4232 19.6993 12.4263 18.9139 11.7555" stroke="black" stroke-miterlimit="10" stroke-linecap="round" stroke-linejoin="round"/>
<path d="M15.4274 11.7653V13.5597" stroke="black" stroke-miterlimit="10" stroke-linecap="round" stroke-linejoin="round"/>
<path d="M15.4434 11.7554H20.4582C21.2159 11.7554 21.8301 11.1412 21.8301 10.3835V9.29622C21.8301 8.53856 21.2159 7.92434 20.4582 7.92434H18.123" stroke="black" stroke-miterlimit="10" stroke-linecap="round" stroke-linejoin="round"/>
<path d="M8.72394 7.92446H6.38873C5.63107 7.92446 5.01685 8.53864 5.01685 9.2963V10.3837C5.01685 11.1413 5.63107 11.7556 6.38873 11.7556H11.4035" stroke="black" stroke-miterlimit="10" stroke-linecap="round" stroke-linejoin="round"/>
</g>
</svg>
