<svg width="27" height="26" viewBox="0 0 27 26" fill="none" xmlns="http://www.w3.org/2000/svg">
<mask id="mask0_4_732" style="mask-type:luminance" maskUnits="userSpaceOnUse" x="0" y="0" width="27" height="26">
<path d="M25.7199 24.9686V0.643442H1.39478V24.9686H25.7199Z" fill="white" stroke="white"/>
</mask>
<g mask="url(#mask0_4_732)">
<path d="M17.798 1.92612C17.2413 1.076 16.2803 0.514391 15.1882 0.514391H11.9264C10.2046 0.514391 8.8089 1.91014 8.8089 3.6319V5.96508C8.8089 5.96508 9.4396 5.95083 9.84485 6.35193C9.92929 6.43547 10.0727 6.37444 10.0727 6.25568V3.77876C10.0727 3.21963 10.526 2.7664 11.085 2.7664H12.005C12.7167 2.7664 12.7494 3.36179 13.5573 3.36179C14.3605 3.36179 14.3982 2.7664 15.1096 2.7664H16.0295C16.5887 2.7664 17.0419 3.21963 17.0419 3.77876V6.25568C17.0419 6.37444 17.1853 6.43547 17.2697 6.35193C17.675 5.95083 18.3057 5.96508 18.3057 5.96508V3.6319" stroke="#2F455C" stroke-miterlimit="10" stroke-linecap="round" stroke-linejoin="round"/>
<path d="M8.8089 5.96505V7.54431C8.8089 7.92423 9.11691 8.23224 9.49688 8.23224H9.75706C9.77852 9.2307 10.1981 10.1918 10.9561 10.8444C11.5664 11.3699 12.4242 11.8286 13.5573 11.8412C14.6905 11.8286 15.5482 11.3699 16.1585 10.8444C16.9165 10.1918 17.3361 9.2307 17.3576 8.23224H17.6177C17.9977 8.23224 18.3057 7.92423 18.3057 7.54431V5.96505" stroke="#2F455C" stroke-miterlimit="10" stroke-linecap="round" stroke-linejoin="round"/>
<path d="M13.5574 11.8413C12.7437 11.8322 12.0727 11.5926 11.5327 11.264V13.0771C11.5327 14.1953 12.4392 15.1018 13.5574 15.1018C14.6756 15.1018 15.5822 14.1953 15.5822 13.0771V11.264C15.0421 11.5926 14.3711 11.8322 13.5574 11.8413Z" stroke="#2F455C" stroke-miterlimit="10" stroke-linecap="round" stroke-linejoin="round"/>
<path d="M4.71045 19.948V23.7136C4.71045 24.478 5.33007 25.0976 6.09443 25.0976H21.0203C21.7847 25.0976 22.4043 24.478 22.4043 23.7136V19.948" stroke="#2F455C" stroke-miterlimit="10" stroke-linecap="round" stroke-linejoin="round"/>
<path d="M18.8504 25.0975V20.9721C18.8504 20.4064 19.309 19.9478 19.8748 19.9478H22.4043V16.9881C22.4043 16.7169 22.3747 16.4455 22.3035 16.1838C22.0047 15.0877 21.1135 14.2263 19.9684 13.9883L18.8386 13.7535" stroke="#2F455C" stroke-miterlimit="10" stroke-linecap="round" stroke-linejoin="round"/>
<path d="M17.1246 13.3975L15.5821 13.0771" stroke="#2F455C" stroke-miterlimit="10" stroke-linecap="round" stroke-linejoin="round"/>
<path d="M11.5326 13.0771L9.99011 13.3975" stroke="#2F455C" stroke-miterlimit="10" stroke-linecap="round" stroke-linejoin="round"/>
<path d="M8.2762 13.7537L7.14641 13.9885C6.00129 14.2264 5.11001 15.0878 4.81135 16.184C4.74003 16.4457 4.71045 16.717 4.71045 16.9883V19.948H7.23999C7.80575 19.948 8.26438 20.4066 8.26438 20.9723V25.0976" stroke="#2F455C" stroke-miterlimit="10" stroke-linecap="round" stroke-linejoin="round"/>
<path d="M8.2705 17.8059C8.23568 18.6624 8.04 19.3641 7.69495 20.0555" stroke="#2F455C" stroke-miterlimit="10" stroke-linecap="round" stroke-linejoin="round"/>
<path d="M8.26428 22.3794L8.6541 21.9592C9.60266 20.5347 9.99005 19.235 9.99005 17.5236V13.2466C9.99005 12.9584 9.71781 12.7479 9.43893 12.8205L8.60558 13.0372C8.51124 13.0617 8.42771 13.1169 8.36808 13.194C8.30846 13.2711 8.27611 13.3658 8.2761 13.4633V16.0694" stroke="#2F455C" stroke-miterlimit="10" stroke-linecap="round" stroke-linejoin="round"/>
<path d="M19.4197 20.0556C19.0375 19.2897 18.8385 18.5112 18.8385 17.5236V13.4633C18.8385 13.3658 18.8062 13.2711 18.7466 13.194C18.6869 13.1168 18.6034 13.0617 18.5091 13.0372L17.6758 12.8205C17.3969 12.7479 17.1246 12.9584 17.1246 13.2466V17.5236C17.1246 19.235 17.512 20.5347 18.4605 21.9592L18.8504 22.3794" stroke="#2F455C" stroke-miterlimit="10" stroke-linecap="round" stroke-linejoin="round"/>
<path d="M11.5327 13.0771V11.264" stroke="#2F455C" stroke-miterlimit="10" stroke-linecap="round" stroke-linejoin="round"/>
<path d="M8.00994 11.2541C7.21631 11.9318 6.71252 12.9391 6.71252 14.0645C6.71252 14.0805 6.71351 14.0962 6.71371 14.1121" stroke="#2F455C" stroke-miterlimit="10" stroke-linecap="round" stroke-linejoin="round"/>
<path d="M20.401 14.1121C20.4012 14.0962 20.4022 14.0805 20.4022 14.0646C20.4022 12.9392 19.8984 11.9318 19.1048 11.2541" stroke="#2F455C" stroke-miterlimit="10" stroke-linecap="round" stroke-linejoin="round"/>
<path d="M15.5821 11.264V13.0771" stroke="#2F455C" stroke-miterlimit="10" stroke-linecap="round" stroke-linejoin="round"/>
<path d="M15.5983 11.2541H20.6653C21.4308 11.2541 22.0514 10.6334 22.0514 9.8679V8.76928C22.0514 8.00374 21.4308 7.38312 20.6653 7.38312H18.3058" stroke="#2F455C" stroke-miterlimit="10" stroke-linecap="round" stroke-linejoin="round"/>
<path d="M8.80894 7.38318H6.44945C5.68391 7.38318 5.06329 8.00375 5.06329 8.76929V9.86796C5.06329 10.6335 5.68391 11.2541 6.44945 11.2541H11.5164" stroke="#2F455C" stroke-miterlimit="10" stroke-linecap="round" stroke-linejoin="round"/>
</g>
</svg>
